<svg t="1720576909064" class="icon" viewBox="0 0 1024 1024" version="1.1" xmlns="http://www.w3.org/2000/svg" p-id="890" width="200" height="200"><path d="M71.111111 227.555556A156.444444 156.444444 0 0 1 227.555556 71.111111h568.888888A156.444444 156.444444 0 0 1 952.888889 227.555556v398.222222A156.444444 156.444444 0 0 1 796.444444 782.222222H227.555556A156.444444 156.444444 0 0 1 71.111111 625.777778V227.555556zM227.555556 156.444444c-39.253333 0-71.111111 31.857778-71.111112 71.111112v398.222222c0 39.253333 31.857778 71.111111 71.111112 71.111111h568.888888c39.253333 0 71.111111-31.857778 71.111112-71.111111V227.555556c0-39.253333-31.857778-71.111111-71.111112-71.111112H227.555556zM404.195556 284.444444H352.711111a23.153778 23.153778 0 0 0-22.300444 18.944L285.013333 540.444444a23.438222 23.438222 0 0 0 17.749334 27.989334 21.902222 21.902222 0 0 0 17.066666-3.470222 23.267556 23.267556 0 0 0 9.784889-15.018667l5.461334-28.444445h86.926222l5.461333 28.444445c2.275556 11.377778 11.832889 18.944 22.300445 18.944 1.365333 0 3.185778 0 4.551111-0.455111a23.210667 23.210667 0 0 0 14.222222-10.24 25.031111 25.031111 0 0 0 3.527111-17.749334l-45.511111-237.056a24.405333 24.405333 0 0 0-7.964445-13.482666A22.698667 22.698667 0 0 0 404.138667 284.444444zM344.120889 474.055111l27.306667-142.222222h13.653333l27.306667 142.222222h-68.266667zM603.022222 284.444444H540.273778c-12.743111 0-22.755556 10.410667-22.755556 23.722667v236.999111c0 13.312 10.012444 23.722667 22.755556 23.722667H603.022222c75.093333 0 136.533333-64 136.533334-142.222222S678.115556 284.444444 603.022222 284.444444z m0 237.056h-39.594666V331.832889h39.594666c50.062222 0 91.022222 42.666667 91.022222 94.833778s-40.96 94.833778-91.022222 94.833777zM156.444444 853.333333a42.666667 42.666667 0 0 0 0 85.333334h711.111112a42.666667 42.666667 0 0 0 0-85.333334H156.444444z" p-id="891"></path></svg>